HIERARCHY
ROOT Hips
{
    OFFSET 0.0 0.0 0.0
    CHANNELS 6 Xposition Yposition Zposition Zrotation Xrotation Yrotation
    JOINT Spine
    {
        OFFSET 0.0 10.0 0.0
        CHANNELS 3 Zrotation Xrotation Yrotation
        JOINT Spine1
        {
            OFFSET 0.0 10.0 0.0
            CHANNELS 3 Zrotation Xrotation Yrotation
            JOINT Neck
            {
                OFFSET 0.0 10.0 0.0
                CHANNELS 3 Zrotation Xrotation Yrotation
                JOINT Head
                {
                    OFFSET 0.0 10.0 0.0
                    CHANNELS 3 Zrotation Xrotation Yrotation
                    End Site
                    {
                        OFFSET 0.0 10.0 0.0
                    }
                }
            }
            JOINT LeftArm
            {
                OFFSET -5.0 8.0 0.0
                CHANNELS 3 Zrotation Xrotation Yrotation
                JOINT LeftForeArm
                {
                    OFFSET -10.0 0.0 0.0
                    CHANNELS 3 Zrotation Xrotation Yrotation
                    JOINT LeftHand
                    {
                        OFFSET -10.0 0.0 0.0
                        CHANNELS 3 Zrotation Xrotation Yrotation
                        End Site
                        {
                            OFFSET -5.0 0.0 0.0
                        }
                    }
                }
            }
            JOINT RightArm
            {
                OFFSET 5.0 8.0 0.0
                CHANNELS 3 Zrotation Xrotation Yrotation
                JOINT RightForeArm
                {
                    OFFSET 10.0 0.0 0.0
                    CHANNELS 3 Zrotation Xrotation Yrotation
                    JOINT RightHand
                    {
                        OFFSET 10.0 0.0 0.0
                        CHANNELS 3 Zrotation Xrotation Yrotation
                        End Site
                        {
                            OFFSET 5.0 0.0 0.0
                        }
                    }
                }
            }
        }
    }
    JOINT LeftUpLeg
    {
        OFFSET -5.0 -5.0 0.0
        CHANNELS 3 Zrotation Xrotation Yrotation
        JOINT LeftLeg
        {
            OFFSET 0.0 -15.0 0.0
            CHANNELS 3 Zrotation Xrotation Yrotation
            JOINT LeftFoot
            {
                OFFSET 0.0 -15.0 0.0
                CHANNELS 3 Zrotation Xrotation Yrotation
                End Site
                {
                    OFFSET 0.0 -5.0 0.0
                }
            }
        }
    }
    JOINT RightUpLeg
    {
        OFFSET 5.0 -5.0 0.0
        CHANNELS 3 Zrotation Xrotation Yrotation
        JOINT RightLeg
        {
            OFFSET 0.0 -15.0 0.0
            CHANNELS 3 Zrotation Xrotation Yrotation
            JOINT RightFoot
            {
                OFFSET 0.0 -15.0 0.0
                CHANNELS 3 Zrotation Xrotation Yrotation
                End Site
                {
                    OFFSET 0.0 -5.0 0.0
                }
            }
        }
    }
}
MOTION
Frames: 12
Frame Time: 0.033333
0.000000 100.000000 60.000000 0.000000 0.000000 0.000000 0.000000 0.000000 0.000000 0.000000 0.000000 0.000000 0.000000 0.000000 0.000000 0.000000 0.000000 0.000000 0.000000 0.000000 0.000000 0.000000 0.000000 0.000000 0.000000 0.000000 0.000000 -0.000000 0.000000 0.000000 -0.000000 0.000000 0.000000 0.000000 0.000000 0.000000 -0.000000 0.000000 0.000000 -0.000000 0.000000 0.000000 0.000000 0.000000 0.000000 0.000000 0.000000 0.000000 0.000000 0.000000 0.000000 0.000000 0.000000 0.000000
-0.156434 101.545085 61.000000 0.000000 0.000000 0.000000 0.000000 0.000000 0.000000 0.000000 0.000000 0.000000 0.000000 0.000000 0.000000 0.000000 0.000000 0.000000 -10.815595 0.000000 0.000000 -5.407797 0.000000 0.000000 0.000000 0.000000 0.000000 10.815595 0.000000 0.000000 5.407797 0.000000 0.000000 0.000000 0.000000 0.000000 13.905765 0.000000 0.000000 4.171729 0.000000 0.000000 0.000000 0.000000 0.000000 -13.905765 0.000000 0.000000 -4.171729 0.000000 0.000000 0.000000 0.000000 0.000000
-0.309017 102.938926 62.000000 0.000000 0.000000 0.000000 0.000000 0.000000 0.000000 0.000000 0.000000 0.000000 0.000000 0.000000 0.000000 0.000000 0.000000 0.000000 -20.572484 0.000000 0.000000 -10.286242 0.000000 0.000000 0.000000 0.000000 0.000000 20.572484 0.000000 0.000000 10.286242 0.000000 0.000000 0.000000 0.000000 0.000000 26.450336 0.000000 0.000000 7.935101 0.000000 0.000000 0.000000 0.000000 0.000000 -26.450336 0.000000 0.000000 -7.935101 0.000000 0.000000 0.000000 0.000000 0.000000
-0.453990 104.045085 63.000000 0.000000 0.000000 0.000000 0.000000 0.000000 0.000000 0.000000 0.000000 0.000000 0.000000 0.000000 0.000000 0.000000 0.000000 0.000000 -28.315595 0.000000 0.000000 -14.157797 0.000000 0.000000 0.000000 0.000000 0.000000 28.315595 0.000000 0.000000 14.157797 0.000000 0.000000 0.000000 0.000000 0.000000 36.405765 0.000000 0.000000 10.921729 0.000000 0.000000 0.000000 0.000000 0.000000 -36.405765 0.000000 0.000000 -10.921729 0.000000 0.000000 0.000000 0.000000 0.000000
-0.587785 104.755283 64.000000 0.000000 0.000000 0.000000 0.000000 0.000000 0.000000 0.000000 0.000000 0.000000 0.000000 0.000000 0.000000 0.000000 0.000000 0.000000 -33.286978 0.000000 0.000000 -16.643489 0.000000 0.000000 0.000000 0.000000 0.000000 33.286978 0.000000 0.000000 16.643489 0.000000 0.000000 0.000000 0.000000 0.000000 42.797543 0.000000 0.000000 12.839263 0.000000 0.000000 0.000000 0.000000 0.000000 -42.797543 0.000000 0.000000 -12.839263 0.000000 0.000000 0.000000 0.000000 0.000000
-0.707107 105.000000 65.000000 0.000000 0.000000 0.000000 0.000000 0.000000 0.000000 0.000000 0.000000 0.000000 0.000000 0.000000 0.000000 0.000000 0.000000 0.000000 -35.000000 0.000000 0.000000 -17.500000 0.000000 0.000000 0.000000 0.000000 0.000000 35.000000 0.000000 0.000000 17.500000 0.000000 0.000000 0.000000 0.000000 0.000000 45.000000 0.000000 0.000000 13.500000 0.000000 0.000000 0.000000 0.000000 0.000000 -45.000000 0.000000 0.000000 -13.500000 0.000000 0.000000 0.000000 0.000000 0.000000
-0.809017 104.755283 66.000000 0.000000 0.000000 0.000000 0.000000 0.000000 0.000000 0.000000 0.000000 0.000000 0.000000 0.000000 0.000000 0.000000 0.000000 0.000000 -33.286978 0.000000 0.000000 -16.643489 0.000000 0.000000 0.000000 0.000000 0.000000 33.286978 0.000000 0.000000 16.643489 0.000000 0.000000 0.000000 0.000000 0.000000 42.797543 0.000000 0.000000 12.839263 0.000000 0.000000 0.000000 0.000000 0.000000 -42.797543 0.000000 0.000000 -12.839263 0.000000 0.000000 0.000000 0.000000 0.000000
-0.891007 104.045085 67.000000 0.000000 0.000000 0.000000 0.000000 0.000000 0.000000 0.000000 0.000000 0.000000 0.000000 0.000000 0.000000 0.000000 0.000000 0.000000 -28.315595 0.000000 0.000000 -14.157797 0.000000 0.000000 0.000000 0.000000 0.000000 28.315595 0.000000 0.000000 14.157797 0.000000 0.000000 0.000000 0.000000 0.000000 36.405765 0.000000 0.000000 10.921729 0.000000 0.000000 0.000000 0.000000 0.000000 -36.405765 0.000000 0.000000 -10.921729 0.000000 0.000000 0.000000 0.000000 0.000000
-0.951057 102.938926 68.000000 0.000000 0.000000 0.000000 0.000000 0.000000 0.000000 0.000000 0.000000 0.000000 0.000000 0.000000 0.000000 0.000000 0.000000 0.000000 -20.572484 0.000000 0.000000 -10.286242 0.000000 0.000000 0.000000 0.000000 0.000000 20.572484 0.000000 0.000000 10.286242 0.000000 0.000000 0.000000 0.000000 0.000000 26.450336 0.000000 0.000000 7.935101 0.000000 0.000000 0.000000 0.000000 0.000000 -26.450336 0.000000 0.000000 -7.935101 0.000000 0.000000 0.000000 0.000000 0.000000
-0.987688 101.545085 69.000000 0.000000 0.000000 0.000000 0.000000 0.000000 0.000000 0.000000 0.000000 0.000000 0.000000 0.000000 0.000000 0.000000 0.000000 0.000000 -10.815595 0.000000 0.000000 -5.407797 0.000000 0.000000 0.000000 0.000000 0.000000 10.815595 0.000000 0.000000 5.407797 0.000000 0.000000 0.000000 0.000000 0.000000 13.905765 0.000000 0.000000 4.171729 0.000000 0.000000 0.000000 0.000000 0.000000 -13.905765 0.000000 0.000000 -4.171729 0.000000 0.000000 0.000000 0.000000 0.000000
-1.000000 100.000000 70.000000 0.000000 0.000000 0.000000 0.000000 0.000000 0.000000 0.000000 0.000000 0.000000 0.000000 0.000000 0.000000 0.000000 0.000000 0.000000 0.000000 0.000000 0.000000 0.000000 0.000000 0.000000 0.000000 0.000000 0.000000 -0.000000 0.000000 0.000000 -0.000000 0.000000 0.000000 0.000000 0.000000 0.000000 -0.000000 0.000000 0.000000 -0.000000 0.000000 0.000000 0.000000 0.000000 0.000000 0.000000 0.000000 0.000000 0.000000 0.000000 0.000000 0.000000 0.000000 0.000000
-0.987688 101.545085 71.000000 0.000000 0.000000 0.000000 0.000000 0.000000 0.000000 0.000000 0.000000 0.000000 0.000000 0.000000 0.000000 0.000000 0.000000 0.000000 10.815595 0.000000 0.000000 5.407797 0.000000 0.000000 0.000000 0.000000 0.000000 -10.815595 0.000000 0.000000 -5.407797 0.000000 0.000000 0.000000 0.000000 0.000000 -13.905765 0.000000 0.000000 -4.171729 0.000000 0.000000 0.000000 0.000000 0.000000 13.905765 0.000000 0.000000 4.171729 0.000000 0.000000 0.000000 0.000000 0.000000
